<?xml version="1.0" standalone="no"?>
<!DOCTYPE svg PUBLIC "-//W3C//DTD SVG 20010904//EN"
 "http://www.w3.org/TR/2001/REC-SVG-20010904/DTD/svg10.dtd">
<svg version="1.0" xmlns="http://www.w3.org/2000/svg"
 width="700.000000pt" height="700.000000pt" viewBox="0 0 700.000000 700.000000"
 preserveAspectRatio="xMidYMid meet">
<metadata>
Created by potrace 1.14, written by Peter Selinger 2001-2017
</metadata>
<g transform="translate(0.000000,700.000000) scale(0.100000,-0.100000)"
fill="#000000" stroke="none">
<path d="M3298 6705 c-2 -2 -37 -6 -80 -9 -42 -4 -91 -9 -110 -11 -18 -3 -53
-8 -78 -11 -25 -3 -76 -12 -115 -19 -38 -8 -81 -16 -95 -19 -39 -6 -189 -45
-255 -66 -241 -74 -513 -197 -732 -329 -440 -267 -834 -666 -1094 -1106 -212
-360 -367 -799 -415 -1180 -2 -22 -7 -51 -9 -65 -26 -160 -26 -640 -1 -767 3
-12 7 -48 11 -80 3 -32 8 -65 10 -73 2 -8 7 -34 10 -57 10 -71 64 -283 101
-398 114 -351 315 -729 525 -989 143 -177 302 -343 439 -458 52 -44 104 -88
116 -98 12 -9 72 -53 135 -97 198 -140 448 -275 669 -361 70 -27 197 -70 315
-105 79 -24 255 -62 330 -72 22 -3 58 -8 80 -12 130 -20 253 -28 450 -28 159
1 314 8 371 19 10 2 46 7 79 10 261 29 632 142 925 279 154 73 419 230 509
302 9 8 63 51 121 96 123 97 356 326 462 455 250 304 440 643 563 1006 39 115
91 302 101 363 3 22 8 43 10 46 3 5 15 74 29 174 4 22 8 51 10 64 26 154 26
609 0 781 -2 14 -7 50 -10 80 -4 30 -8 57 -10 60 -2 3 -6 24 -9 46 -37 246
-150 582 -290 864 -475 955 -1431 1626 -2486 1745 -19 3 -55 7 -80 10 -48 7
-496 15 -502 10z m417 -589 c79 -8 209 -24 246 -31 13 -3 47 -9 74 -15 28 -6
59 -12 70 -14 76 -15 284 -82 398 -130 420 -174 817 -478 1077 -825 14 -18 34
-45 46 -59 89 -116 228 -364 297 -532 79 -190 149 -442 171 -610 3 -25 8 -54
10 -65 10 -50 19 -222 19 -345 0 -192 -12 -313 -49 -500 -31 -153 -25 -131
-68 -272 -97 -319 -291 -669 -511 -923 -233 -270 -497 -477 -810 -635 -208
-106 -483 -202 -665 -234 -19 -3 -46 -8 -59 -11 -178 -34 -465 -48 -671 -31
-234 19 -566 94 -715 160 -16 8 -41 17 -55 21 -42 12 -303 141 -366 181 -88
55 -167 107 -184 121 -176 138 -240 193 -339 293 -353 357 -597 810 -699 1300
-11 52 -23 118 -27 145 -3 28 -8 57 -10 65 -23 89 -23 545 1 663 2 12 7 42 10
67 3 25 15 86 25 135 11 50 22 101 25 115 11 56 70 232 109 330 99 245 233
471 414 695 53 65 248 266 302 310 13 11 47 38 74 61 301 246 696 434 1090
520 57 13 116 23 164 29 30 4 63 8 74 11 11 2 61 6 111 10 50 3 92 7 93 8 5 5
262 -1 328 -8z"/>
<path d="M3340 5537 c-3 -3 -39 -8 -80 -11 -41 -4 -84 -9 -95 -11 -11 -3 -31
-7 -45 -9 -226 -41 -480 -139 -682 -264 -453 -277 -787 -728 -913 -1232 -13
-52 -27 -108 -29 -125 -3 -16 -8 -41 -11 -55 -29 -143 -27 -504 4 -680 96
-547 413 -1035 871 -1341 112 -75 117 -78 218 -128 220 -110 388 -163 637
-201 93 -14 165 -17 320 -15 110 2 210 5 222 8 11 3 43 9 70 12 26 4 64 11 83
15 19 5 46 11 60 13 42 8 169 47 255 79 173 64 423 208 560 320 149 124 310
301 418 464 168 253 295 600 325 886 9 96 9 396 -1 478 -14 113 -16 125 -42
233 -123 512 -434 952 -875 1239 -202 132 -483 249 -679 283 -19 3 -37 7 -40
9 -3 2 -28 7 -56 11 -27 4 -61 9 -75 11 -35 6 -415 16 -420 11z m361 -591 c20
-3 78 -15 130 -27 526 -122 937 -522 1079 -1049 51 -189 60 -461 21 -647 -52
-250 -157 -472 -311 -658 -54 -65 -196 -196 -268 -248 -145 -104 -353 -199
-521 -238 -207 -48 -470 -45 -686 8 -470 114 -868 479 -1023 938 -27 79 -43
146 -68 275 -16 86 -10 352 10 454 29 143 32 154 78 274 120 320 386 615 695
771 150 75 343 134 483 147 36 4 66 8 68 9 5 4 270 -4 313 -9z"/>
<path d="M3458 4375 c-2 -1 -30 -5 -63 -8 -83 -9 -191 -40 -275 -81 -478 -233
-641 -829 -346 -1271 309 -463 975 -521 1357 -119 324 343 324 866 0 1208
-134 141 -321 237 -511 262 -43 5 -159 12 -162 9z m170 -614 c98 -50 153 -135
160 -246 3 -56 0 -80 -17 -119 -31 -71 -72 -118 -133 -152 -47 -26 -62 -29
-138 -29 -69 0 -93 5 -128 23 -56 30 -104 78 -133 132 -34 64 -34 195 -1 258
32 60 82 108 144 138 46 22 63 25 128 21 51 -2 88 -11 118 -26z"/>
</g>
</svg>
